<?xml version="1.0" encoding="utf-8"?>
<!-- Generator: Adobe Illustrator 16.0.4, SVG Export Plug-In . SVG Version: 6.00 Build 0)  -->
<!DOCTYPE svg PUBLIC "-//W3C//DTD SVG 1.1//EN" "http://www.w3.org/Graphics/SVG/1.1/DTD/svg11.dtd">
<svg version="1.1" id="Layer_1" xmlns="http://www.w3.org/2000/svg" xmlns:xlink="http://www.w3.org/1999/xlink" x="0px" y="0px"
	 width="31.791px" height="37.145px" viewBox="0 0 31.791 37.145" enable-background="new 0 0 31.791 37.145" xml:space="preserve">
<path fill="#FFFFFF" d="M31.791,9.235c0-2.184-0.6-4.075-1.783-5.604c-1.18-1.538-2.718-2.554-4.568-3.005
	C23.73,0.207,21.259,0,17.884,0H8.428L6.923,6.271h3.376L4.387,30.879H1.463L0,37.145h12.107c3.233,0,5.61-0.119,7.267-0.377
	c1.712-0.26,3.297-0.818,4.714-1.658c1.453-0.863,2.684-2.156,3.65-3.854c0.978-1.695,1.474-3.504,1.474-5.379
	c0-1.949-0.538-3.746-1.59-5.338c-0.562-0.842-1.229-1.561-2.001-2.152c1.59-0.663,2.894-1.584,3.9-2.746
	C31.029,13.894,31.791,11.744,31.791,9.235z M13.124,30.879h-1.421l2.353-9.949h0.964c2.153,0,3.682,0.094,4.534,0.275
	c0.66,0.145,1.231,0.551,1.729,1.229c0.514,0.699,0.771,1.648,0.771,2.814c0,1.072-0.222,2.053-0.662,2.902
	c-0.437,0.84-0.971,1.451-1.593,1.824c-0.649,0.408-1.349,0.656-2.041,0.746C16.951,30.827,15.382,30.879,13.124,30.879z
	 M24.145,7.487c0.402,0.555,0.6,1.271,0.6,2.197c0,1.188-0.299,2.171-0.932,3.001c-0.627,0.825-1.384,1.349-2.303,1.597
	c-1.045,0.28-2.771,0.426-5.146,0.426h-0.765l2.03-8.438h1.119c2.369,0,3.473,0.141,3.984,0.254
	C23.298,6.649,23.758,6.966,24.145,7.487z"/>
</svg>
