<?xml version="1.0" encoding="utf-8"?>
<!-- Generator: Adobe Illustrator 16.0.4, SVG Export Plug-In . SVG Version: 6.00 Build 0)  -->
<!DOCTYPE svg PUBLIC "-//W3C//DTD SVG 1.1//EN" "http://www.w3.org/Graphics/SVG/1.1/DTD/svg11.dtd">
<svg version="1.1" id="Layer_1" xmlns="http://www.w3.org/2000/svg" xmlns:xlink="http://www.w3.org/1999/xlink" x="0px" y="0px"
	 width="38.588px" height="37.144px" viewBox="0 0 38.588 37.144" enable-background="new 0 0 38.588 37.144" xml:space="preserve">
<path fill="#FFFFFF" d="M32.011,2.801c-2.012-1.295-4.075-2.104-6.14-2.391C23.912,0.137,21.074,0,17.443,0H8.274L6.812,6.275h3.535
	L4.439,30.871H1.462L0,37.144h10.375c5.611,0,9.898-0.312,12.734-0.935c2.932-0.633,5.526-1.842,7.719-3.596
	c2.197-1.754,4.055-4.164,5.531-7.164c1.477-3.004,2.229-6.354,2.229-9.961c0-2.623-0.591-5.088-1.752-7.328
	C35.673,5.914,34.043,4.107,32.011,2.801z M28.607,24.219c-1.612,2.797-3.574,4.611-5.816,5.393
	c-2.387,0.835-5.83,1.262-10.246,1.262h-0.78l5.912-24.597h1.011c3.019,0,5.378,0.228,7.022,0.685
	c1.504,0.424,2.748,1.347,3.79,2.849c1.048,1.494,1.576,3.317,1.576,5.433C31.076,18.33,30.247,21.349,28.607,24.219z"/>
</svg>
