<?xml version="1.0" encoding="utf-8"?>
<!-- Generator: Adobe Illustrator 16.0.4, SVG Export Plug-In . SVG Version: 6.00 Build 0)  -->
<!DOCTYPE svg PUBLIC "-//W3C//DTD SVG 1.1//EN" "http://www.w3.org/Graphics/SVG/1.1/DTD/svg11.dtd">
<svg version="1.1" id="Layer_1" xmlns="http://www.w3.org/2000/svg" xmlns:xlink="http://www.w3.org/1999/xlink" x="0px" y="0px"
	 width="31.195px" height="38.251px" viewBox="0 0 31.195 38.251" enable-background="new 0 0 31.195 38.251" xml:space="preserve">
<path fill="#FFFFFF" d="M28.479,12.204l2.717-11.646h-6.463l-0.327,1.465C22.54,0.686,20.28,0,17.684,0
	c-3.312,0-6.082,0.967-8.226,2.857c-2.187,1.934-3.297,4.481-3.297,7.604c0,2.178,0.56,4.114,1.67,5.787
	c1.075,1.615,2.904,3.282,5.597,5.1c2.303,1.533,3.855,2.758,4.603,3.657c0.662,0.786,0.979,1.689,0.979,2.757
	c0,1.192-0.479,2.178-1.459,3.02c-1.024,0.878-2.283,1.304-3.836,1.304c-2.139,0-3.908-0.735-5.4-2.246l0.904-3.909H2.74L0,37.704
	h6.479l0.261-1.142c1.88,1.117,4.035,1.688,6.423,1.688c3.648,0,6.698-1.014,9.061-3.035c2.414-2.063,3.636-4.821,3.636-8.209
	c0-1.692-0.332-3.233-0.985-4.583c-0.639-1.338-1.497-2.498-2.547-3.441c-0.988-0.879-2.533-2.021-4.708-3.461
	c-1.944-1.307-3.245-2.385-3.867-3.226c-0.565-0.767-0.838-1.542-0.838-2.405c0-1.139,0.403-2.031,1.231-2.703
	c0.899-0.737,2.012-1.09,3.392-1.09c1.104,0,2.144,0.27,3.192,0.828c0.885,0.469,1.598,1.061,2.125,1.752l-0.828,3.526H28.479
	L28.479,12.204z"/>
</svg>
